<svg width="18" height="19" viewBox="0 0 18 19" fill="none" xmlns="http://www.w3.org/2000/svg">
<g id="assignment_late">
<mask id="mask0_890_23174" style="mask-type:alpha" maskUnits="userSpaceOnUse" x="0" y="0" width="18" height="19">
<rect id="Bounding box" y="0.5" width="18" height="18" fill="#D9D9D9"/>
</mask>
<g mask="url(#mask0_890_23174)">
<path id="assignment_late_2" d="M8.5 14.0292C8.68988 14.0292 8.84825 13.9657 8.97509 13.8389C9.10117 13.7121 9.16421 13.5537 9.16421 13.3638C9.16421 13.1739 9.10117 13.0118 8.97509 12.8773C8.84825 12.7429 8.68988 12.6757 8.5 12.6757C8.31012 12.6757 8.15175 12.7429 8.02491 12.8773C7.89883 13.0118 7.83579 13.1663 7.83579 13.341C7.83579 13.5309 7.89883 13.6931 8.02491 13.8275C8.15175 13.9619 8.31012 14.0292 8.5 14.0292ZM7.8825 11.1091H9.1175V5.36594H7.8825V11.1091ZM2.51868 17.2089C2.10702 17.2089 1.7508 17.0589 1.45002 16.7589C1.15001 16.4581 1 16.1019 1 15.6903V3.72763C1 3.31597 1.15001 2.96012 1.45002 2.66011C1.7508 2.35933 2.10702 2.20895 2.51868 2.20895H6.81498C6.79903 1.76538 6.95321 1.36966 7.27753 1.0218C7.60185 0.673933 8.00934 0.5 8.5 0.5C9.00661 0.5 9.4179 0.673933 9.73386 1.0218C10.0506 1.36966 10.201 1.76538 10.185 2.20895H14.4813C14.893 2.20895 15.2492 2.35933 15.55 2.66011C15.85 2.96012 16 3.31597 16 3.72763V15.6903C16 16.1019 15.85 16.4581 15.55 16.7589C15.2492 17.0589 14.893 17.2089 14.4813 17.2089H2.51868ZM2.51868 15.9751H14.4813C14.5444 15.9751 14.6078 15.9436 14.6716 15.8805C14.7346 15.8167 14.7661 15.7533 14.7661 15.6903V3.72763C14.7661 3.66459 14.7346 3.60117 14.6716 3.53737C14.6078 3.47433 14.5444 3.44281 14.4813 3.44281H2.51868C2.45564 3.44281 2.39222 3.47433 2.32842 3.53737C2.26538 3.60117 2.23386 3.66459 2.23386 3.72763V15.6903C2.23386 15.7533 2.26538 15.8167 2.32842 15.8805C2.39222 15.9436 2.45564 15.9751 2.51868 15.9751ZM8.5 2.96772C8.65798 2.96772 8.79242 2.91265 8.90331 2.80252C9.0142 2.69163 9.06965 2.55681 9.06965 2.39807C9.06965 2.22414 9.0142 2.0859 8.90331 1.98337C8.79242 1.88007 8.65798 1.82842 8.5 1.82842C8.34202 1.82842 8.20758 1.88007 8.09669 1.98337C7.9858 2.0859 7.93035 2.22414 7.93035 2.39807C7.93035 2.55681 7.9858 2.69163 8.09669 2.80252C8.20758 2.91265 8.34202 2.96772 8.5 2.96772Z" fill="#292929"/>
</g>
</g>
</svg>
