<svg width="18" height="19" viewBox="0 0 18 19" fill="none" xmlns="http://www.w3.org/2000/svg">
<g id="check_circle">
<mask id="mask0_988_19806" style="mask-type:alpha" maskUnits="userSpaceOnUse" x="0" y="0" width="18" height="19">
<rect id="Bounding box" y="0.5" width="18" height="18" fill="#D9D9D9"/>
</mask>
<g mask="url(#mask0_988_19806)">
<path id="check_circle_2" d="M7.95 12.948L13.2375 7.66055L12.1875 6.61055L7.95 10.848L5.8125 8.71055L4.7625 9.76055L7.95 12.948ZM9 16.998C7.9625 16.998 6.9875 16.801 6.075 16.407C5.1625 16.0135 4.36875 15.4793 3.69375 14.8043C3.01875 14.1293 2.4845 13.3355 2.091 12.423C1.697 11.5105 1.5 10.5355 1.5 9.49805C1.5 8.46055 1.697 7.48555 2.091 6.57305C2.4845 5.66055 3.01875 4.8668 3.69375 4.1918C4.36875 3.5168 5.1625 2.9823 6.075 2.5883C6.9875 2.1948 7.9625 1.99805 9 1.99805C10.0375 1.99805 11.0125 2.1948 11.925 2.5883C12.8375 2.9823 13.6313 3.5168 14.3063 4.1918C14.9813 4.8668 15.5155 5.66055 15.909 6.57305C16.303 7.48555 16.5 8.46055 16.5 9.49805C16.5 10.5355 16.303 11.5105 15.909 12.423C15.5155 13.3355 14.9813 14.1293 14.3063 14.8043C13.6313 15.4793 12.8375 16.0135 11.925 16.407C11.0125 16.801 10.0375 16.998 9 16.998ZM9 15.498C10.675 15.498 12.0937 14.9168 13.2562 13.7543C14.4187 12.5918 15 11.173 15 9.49805C15 7.82305 14.4187 6.4043 13.2562 5.2418C12.0937 4.0793 10.675 3.49805 9 3.49805C7.325 3.49805 5.90625 4.0793 4.74375 5.2418C3.58125 6.4043 3 7.82305 3 9.49805C3 11.173 3.58125 12.5918 4.74375 13.7543C5.90625 14.9168 7.325 15.498 9 15.498Z" fill="black"/>
</g>
</g>
</svg>
