<svg width="61" height="24" viewBox="0 0 61 24" fill="none" xmlns="http://www.w3.org/2000/svg">
<path d="M12.3031 24C9.90897 24 7.78087 23.5062 5.91878 22.5185C4.05669 21.5309 2.60471 20.1372 1.56282 18.3375C0.520941 16.5158 0 14.4088 0 12.0165C0 9.62414 0.520941 7.51715 1.56282 5.69547C2.60471 3.8738 4.05669 2.46914 5.91878 1.48148C7.78087 0.493827 9.90897 0 12.3031 0C15.4952 0 18.1664 0.801098 20.3167 2.40329V5.62963C18.3881 3.93964 15.8167 3.09465 12.6023 3.09465C10.8068 3.09465 9.21068 3.45679 7.81412 4.18107C6.43972 4.90535 5.36459 5.94788 4.58872 7.30864C3.81285 8.64746 3.42491 10.2167 3.42491 12.0165C3.42491 13.8162 3.81285 15.3964 4.58872 16.7572C5.38675 18.118 6.47297 19.1605 7.84737 19.8848C9.24394 20.6091 10.8289 20.9712 12.6023 20.9712C14.2428 20.9712 15.7058 20.7627 16.9916 20.3457C18.2994 19.9067 19.5076 19.2154 20.616 18.2716V21.5309C18.6209 23.177 15.8499 24 12.3031 24Z" fill="#7718BC"/>
<path d="M20.9472 0.493826H29.8919C32.3968 0.493826 34.3697 1.11934 35.8106 2.37037C37.2737 3.59945 38.0052 5.35528 38.0052 7.63786C38.0052 9.96434 37.2848 11.7311 35.8439 12.9383C34.403 14.1235 32.419 14.7161 29.8919 14.7161H24.3388V23.5062H20.9472V0.493826ZM29.5261 11.9177C31.0778 11.9177 32.3081 11.5995 33.217 10.963C34.1259 10.3265 34.5803 9.21811 34.5803 7.63786C34.5803 6.05761 34.1259 4.94925 33.217 4.31276C32.3081 3.65432 31.0778 3.3251 29.5261 3.3251H24.3388V11.9177H29.5261Z" fill="#7718BC"/>
<path d="M37.6574 0.493826H41.0491L49.3287 18.4362L57.6083 0.493826H61V23.5062H57.7081V7.14403L50.16 23.5062H48.4974L40.9161 7.14403V23.5062H37.6574V0.493826Z" fill="#7718BC"/>
</svg>
