<svg width="24" height="24" viewBox="0 0 24 24" fill="none" xmlns="http://www.w3.org/2000/svg">
<mask id="mask0_611_19105" style="mask-type:alpha" maskUnits="userSpaceOnUse" x="0" y="0" width="24" height="24">
<rect width="24" height="24" fill="#D9D9D9"/>
</mask>
<g mask="url(#mask0_611_19105)">
<path d="M5.0748 21.2008C4.44147 21.2008 3.90414 20.9801 3.4628 20.5388C3.0208 20.0968 2.7998 19.5591 2.7998 18.9258V5.07578C2.7998 4.44245 3.0208 3.90478 3.4628 3.46278C3.90414 3.02145 4.44147 2.80078 5.0748 2.80078H13.9748V5.07578H5.0748V18.9258H18.9248V10.0258H21.1998V18.9258C21.1998 19.5591 20.9791 20.0968 20.5378 20.5388C20.0958 20.9801 19.5581 21.2008 18.9248 21.2008H5.0748ZM7.9998 17.0008V15.0008H15.9998V17.0008H7.9998ZM7.9998 14.0008V12.0008H15.9998V14.0008H7.9998ZM7.9998 11.0008V9.00078H15.9998V11.0008H7.9998ZM17.0498 9.02578V6.95078H14.9748V4.85078H17.0498V2.80078H19.1498V4.85078H21.1998V6.95078H19.1498V9.02578H17.0498Z" fill="#7718BC"/>
</g>
</svg>
