<svg width="48" height="48" viewBox="0 0 48 48" fill="none" xmlns="http://www.w3.org/2000/svg">
<g id="PEA/Icon/File-pdf-document" clip-path="url(#clip0_2401_8464)">
<rect width="48" height="48" fill="white" fill-opacity="0.01"/>
<path id="Vector" fill-rule="evenodd" clip-rule="evenodd" d="M6 0H42C43.5913 0 45.1174 0.632141 46.2426 1.75736C47.3679 2.88258 48 4.4087 48 6V42C48 43.5913 47.3679 45.1174 46.2426 46.2426C45.1174 47.3679 43.5913 48 42 48H6C4.4087 48 2.88258 47.3679 1.75736 46.2426C0.632141 45.1174 0 43.5913 0 42L0 6C0 4.4087 0.632141 2.88258 1.75736 1.75736C2.88258 0.632141 4.4087 0 6 0V0ZM9.692 24.34H10.658C12.89 24.34 13.064 23.696 13.064 22.788C13.064 21.752 12.528 21.246 11.43 21.246H9.692V24.338V24.34ZM22.272 28.706H23.6C25.084 28.706 26.602 28.266 26.602 24.996C26.602 21.696 24.998 21.276 23.6 21.276H22.27V28.706H22.272ZM8.924 31.98H6.764C6.56101 31.9789 6.36669 31.8976 6.22353 31.7536C6.08036 31.6097 6 31.415 6 31.212V18.766C6 18.346 6.342 18 6.766 18H11.754C14.72 18 16.794 19.968 16.794 22.788C16.794 25.648 14.764 27.568 11.744 27.568H9.692V31.212C9.692 31.4153 9.61136 31.6104 9.46777 31.7544C9.32417 31.8983 9.12934 31.9795 8.926 31.98H8.924ZM23.824 31.98H19.344C19.2431 31.98 19.1433 31.9601 19.0501 31.9215C18.9569 31.8829 18.8723 31.8264 18.8009 31.7551C18.7296 31.6837 18.6731 31.5991 18.6345 31.5059C18.5959 31.4127 18.576 31.3129 18.576 31.212V18.766C18.576 18.346 18.92 18 19.342 18H23.826C28.04 18 30.362 20.474 30.362 24.968C30.362 29.488 28.042 31.98 23.826 31.98H23.824ZM35.376 31.98H33.216C33.1151 31.98 33.0153 31.9601 32.9221 31.9215C32.8289 31.8829 32.7443 31.8264 32.6729 31.7551C32.6016 31.6837 32.5451 31.5991 32.5065 31.5059C32.4679 31.4127 32.448 31.3129 32.448 31.212V18.766C32.448 18.346 32.792 18 33.214 18H41.232C41.652 18 41.998 18.344 41.998 18.766V20.526C41.998 20.7292 41.9173 20.924 41.7736 21.0676C41.63 21.2113 41.4352 21.292 41.232 21.292H36.142V23.572H40.726C41.15 23.572 41.492 23.916 41.492 24.338V26.072C41.492 26.492 41.15 26.838 40.726 26.838H36.142V31.212C36.142 31.4153 36.0614 31.6104 35.9178 31.7544C35.7742 31.8983 35.5793 31.9795 35.376 31.98Z" fill="#7718BC"/>
</g>
<defs>
<clipPath id="clip0_2401_8464">
<rect width="48" height="48" fill="white"/>
</clipPath>
</defs>
</svg>