<svg width="24" height="25" viewBox="0 0 24 25" fill="none" xmlns="http://www.w3.org/2000/svg">
<rect y="0.5" width="24" height="24" rx="4" fill="#091E42" fill-opacity="0.04"/>
<mask id="mask0_611_17770" style="mask-type:alpha" maskUnits="userSpaceOnUse" x="4" y="4" width="16" height="17">
<rect x="4" y="4.5" width="16" height="16" fill="#D9D9D9"/>
</mask>
<g mask="url(#mask0_611_17770)">
<path d="M7.53359 19.0669C6.94471 19.0669 6.44737 18.8643 6.04159 18.4589C5.63626 18.0532 5.43359 17.5558 5.43359 16.9669V8.03359C5.43359 7.44471 5.63626 6.94737 6.04159 6.54159C6.44737 6.13626 6.94471 5.93359 7.53359 5.93359H13.2836V8.03359H7.53359V16.9669H16.4669V11.2169H18.5669V16.9669C18.5669 17.5558 18.3643 18.0532 17.9589 18.4589C17.5532 18.8643 17.0558 19.0669 16.4669 19.0669H7.53359ZM9.33359 15.8336V14.5003H14.6669V15.8336H9.33359ZM9.33359 13.8336V12.5003H14.6669V13.8336H9.33359ZM9.33359 11.8336V10.5003H14.6669V11.8336H9.33359ZM15.4669 10.5503V9.03359H13.9503V7.45026H15.4669V5.93359H17.0503V7.45026H18.5669V9.03359H17.0503V10.5503H15.4669Z" fill="#42526E"/>
</g>
</svg>
