<svg width="24" height="25" viewBox="0 0 24 25" fill="none" xmlns="http://www.w3.org/2000/svg">
<rect y="0.5" width="24" height="24" rx="4" fill="#091E42" fill-opacity="0.04"/>
<mask id="mask0_611_17771" style="mask-type:alpha" maskUnits="userSpaceOnUse" x="4" y="4" width="16" height="17">
<rect x="4" y="4.5" width="16" height="16" fill="#D9D9D9"/>
</mask>
<g mask="url(#mask0_611_17771)">
<path d="M7.53359 19.1164C6.95582 19.1164 6.46137 18.9109 6.05026 18.4997C5.63915 18.0886 5.43359 17.5942 5.43359 17.0164V8.08307C5.43359 7.5053 5.63915 7.01085 6.05026 6.59974C6.46137 6.18863 6.95582 5.98307 7.53359 5.98307H9.68359C9.87248 5.56085 10.1809 5.21907 10.6089 4.95774C11.0365 4.69685 11.5003 4.56641 12.0003 4.56641C12.5003 4.56641 12.9643 4.69685 13.3923 4.95774C13.8198 5.21907 14.1336 5.56085 14.3336 5.98307H16.4669C17.0447 5.98307 17.5391 6.18863 17.9503 6.59974C18.3614 7.01085 18.5669 7.5053 18.5669 8.08307V11.0331H16.4669V8.08307H15.1336V10.0831H8.86693V8.08307H7.53359V17.0164H10.5336V19.1164H7.53359ZM18.6503 20.6331L16.7836 18.7664C16.5503 18.8886 16.3114 18.9802 16.0669 19.0411C15.8225 19.1024 15.5503 19.1331 15.2503 19.1331C14.3058 19.1331 13.5058 18.8053 12.8503 18.1497C12.1947 17.4942 11.8669 16.6942 11.8669 15.7497C11.8669 14.8053 12.1947 14.0053 12.8503 13.3497C13.5058 12.6942 14.3058 12.3664 15.2503 12.3664C16.1947 12.3664 16.9947 12.6942 17.6503 13.3497C18.3058 14.0053 18.6336 14.8053 18.6336 15.7497C18.6336 16.0497 18.6029 16.322 18.5416 16.5664C18.4807 16.8109 18.3891 17.0497 18.2669 17.2831L20.1336 19.1497L18.6503 20.6331ZM15.2503 17.0331C15.6058 17.0331 15.9087 16.9082 16.1589 16.6584C16.4087 16.4082 16.5336 16.1053 16.5336 15.7497C16.5336 15.3942 16.4087 15.0913 16.1589 14.8411C15.9087 14.5913 15.6058 14.4664 15.2503 14.4664C14.8947 14.4664 14.5918 14.5913 14.3416 14.8411C14.0918 15.0913 13.9669 15.3942 13.9669 15.7497C13.9669 16.1053 14.0918 16.4082 14.3416 16.6584C14.5918 16.9082 14.8947 17.0331 15.2503 17.0331ZM12.0003 7.83307C12.1891 7.83307 12.3476 7.76907 12.4756 7.64107C12.6031 7.51352 12.6669 7.3553 12.6669 7.16641C12.6669 6.97752 12.6031 6.81907 12.4756 6.69107C12.3476 6.56352 12.1891 6.49974 12.0003 6.49974C11.8114 6.49974 11.6531 6.56352 11.5256 6.69107C11.3976 6.81907 11.3336 6.97752 11.3336 7.16641C11.3336 7.3553 11.3976 7.51352 11.5256 7.64107C11.6531 7.76907 11.8114 7.83307 12.0003 7.83307Z" fill="#42526E"/>
</g>
</svg>
