<svg width="18" height="19" viewBox="0 0 18 19" fill="none" xmlns="http://www.w3.org/2000/svg">
<g id="thumb_up">
<mask id="mask0_890_23167" style="mask-type:alpha" maskUnits="userSpaceOnUse" x="0" y="0" width="18" height="19">
<rect id="Bounding box" y="0.5" width="18" height="18" fill="#D9D9D9"/>
</mask>
<g mask="url(#mask0_890_23167)">
<path id="thumb_up_2" d="M13.2938 15.8738H5.4V6.87383L10.3875 1.92383L11.025 2.56133C11.1 2.63633 11.1625 2.73933 11.2125 2.87033C11.2625 3.00183 11.2875 3.12383 11.2875 3.23633V3.42383L10.5 6.87383H15.525C15.875 6.87383 16.1875 7.01133 16.4625 7.28633C16.7375 7.56133 16.875 7.87383 16.875 8.22383V9.44258C16.875 9.51758 16.8655 9.60183 16.8465 9.69533C16.828 9.78933 16.8063 9.87383 16.7812 9.94883L14.625 15.0113C14.525 15.2613 14.347 15.4676 14.091 15.6301C13.8345 15.7926 13.5688 15.8738 13.2938 15.8738ZM6.525 14.7488H13.2938C13.3438 14.7488 13.397 14.7333 13.4535 14.7023C13.5095 14.6708 13.5562 14.6238 13.5938 14.5613L15.75 9.49883V8.22383C15.75 8.16133 15.7283 8.10808 15.6848 8.06408C15.6408 8.02058 15.5875 7.99883 15.525 7.99883H9.075L10.0125 3.89258L6.525 7.36133V14.7488ZM5.4 6.87383V7.99883H3V14.7488H5.4V15.8738H1.875V6.87383H5.4Z" fill="white"/>
</g>
</g>
</svg>
